<svg version="1.1" id="Layer_1" xmlns="http://www.w3.org/2000/svg" xmlns:xlink="http://www.w3.org/1999/xlink" x="0px" y="0px"
	 width="100%" viewBox="0 0 125 126" enable-background="new 0 0 125 126" xml:space="preserve">


<path fill="currentColor" opacity="1.000000" stroke="currentColor" 
	d="
M53.996014,98.833488 
	C51.847912,98.888458 49.627232,98.609177 47.564445,99.057068 
	C39.254459,100.861427 35.064198,96.295082 31.850016,89.602081 
	C30.187981,86.141174 28.582628,82.180840 25.780071,79.862381 
	C22.464634,77.119637 17.886053,75.903053 13.850647,74.034332 
	C13.710433,73.969398 13.514078,74.036484 13.359704,73.989777 
	C8.110131,72.401237 2.616327,71.105446 1.312782,64.669273 
	C1.000000,58.645603 1.000000,52.291203 1.358087,45.484146 
	C3.847375,46.368843 5.978576,47.706200 8.058954,49.480049 
	C8.340437,54.284630 8.584897,58.662739 9.080998,63.012138 
	C9.177365,63.857006 10.094280,64.968964 10.905478,65.311234 
	C15.160742,67.106659 19.479147,68.765739 23.846498,70.265800 
	C24.409594,70.459206 25.384245,69.454376 26.496418,69.076591 
	C28.587833,70.111908 30.351080,71.075233 32.061222,72.442200 
	C34.656334,78.716522 37.304550,84.587204 40.001663,90.566277 
	C42.334236,89.320236 43.609978,88.638748 45.142509,88.174644 
	C48.264874,91.872513 51.130444,95.353004 53.996014,98.833488 
z"/>
<path fill="currentColor" opacity="1.000000" stroke="none" 
	d="
M32.114326,72.038559 
	C30.351080,71.075233 28.587833,70.111908 26.533709,68.708122 
	C27.529160,65.040146 28.815487,61.812630 30.064167,58.679577 
	C22.521780,55.369141 15.315780,52.206348 8.109777,49.043556 
	C5.978576,47.706200 3.847375,46.368843 1.358087,45.015743 
	C1.000000,43.611111 1.000000,42.222221 1.000000,40.416664 
	C3.215426,38.269638 5.554165,36.672138 7.607128,34.766731 
	C9.239485,33.251701 10.522522,31.360296 12.533023,29.783108 
	C14.421361,31.658129 15.737319,33.386028 16.922287,35.421242 
	C14.538287,37.566807 12.285278,39.405064 9.051880,42.043224 
	C16.914488,45.149368 22.933832,47.527325 29.021265,50.248901 
	C30.175467,52.011215 31.257954,53.432697 32.348495,54.847973 
	C34.216869,57.272705 36.090275,59.693558 37.580605,62.070816 
	C35.504536,65.363243 33.809429,68.700905 32.114326,72.038559 
z"/>
<path fill="currentColor" opacity="1.000000" stroke="none" 
	d="
M123.114365,55.957291 
	C123.897171,57.527695 124.679985,59.098095 125.731400,60.334248 
	C126.000000,64.689255 126.000000,69.378510 126.000000,74.533882 
	C124.977867,75.763023 123.955742,76.526047 122.464157,77.243080 
	C120.292213,76.116180 118.589722,75.035271 116.944061,73.570885 
	C117.375862,70.553879 118.226181,67.882454 118.019958,65.295258 
	C117.666367,60.859287 116.652435,56.475952 116.261566,52.114197 
	C118.776375,53.424343 120.945366,54.690815 123.114365,55.957291 
z"/>
<path fill="currentColor" opacity="1.000000" stroke="none" 
	d="
M37.961563,62.116039 
	C36.090275,59.693558 34.216869,57.272705 32.348495,54.847973 
	C31.257954,53.432697 30.175467,52.011215 29.043827,49.831619 
	C28.386990,45.380547 27.775681,41.690380 27.491152,38.071320 
	C30.157118,39.428444 32.496304,40.714474 34.913292,42.390228 
	C35.549320,44.858212 36.107548,46.936459 36.873108,49.786587 
	C38.551147,47.772900 39.752804,46.330879 41.120480,45.185432 
	C43.872307,48.692505 46.458111,51.903004 48.887642,55.425743 
	C47.295609,56.315083 45.859856,56.892178 44.191998,57.562569 
	C50.949165,61.417027 57.496799,65.151962 64.090332,69.243187 
	C66.796204,72.413559 69.456177,75.227638 72.064178,78.428818 
	C74.150291,84.773247 76.288376,90.730576 78.656616,97.329170 
	C80.210991,93.884178 81.547867,90.921227 83.231140,88.025406 
	C85.066109,89.766037 86.554680,91.439522 88.043259,93.113014 
	C87.023087,97.458046 86.002922,101.803078 84.556793,106.556396 
	C82.204109,105.593307 80.264534,104.239571 78.354065,102.845932 
	C76.184029,101.262947 74.040024,99.644272 71.657150,98.006660 
	C71.429588,97.972206 70.970490,97.938988 71.008347,97.948532 
	C71.046204,97.958069 71.067329,98.033249 71.030685,97.644592 
	C69.153175,92.207977 67.312317,87.160027 65.309776,81.668709 
	C63.448338,82.887100 61.743984,84.002670 59.879326,84.825989 
	C58.466282,82.983299 57.213543,81.432854 56.086922,79.573021 
	C57.678757,77.905724 59.144466,76.547813 60.641483,75.160912 
	C53.021889,70.778328 45.491726,66.447182 37.961563,62.116039 
z"/>
<path fill="currentColor" opacity="1.000000" stroke="none" 
	d="
M71.884705,98.041115 
	C74.040024,99.644272 76.184029,101.262947 78.354065,102.845932 
	C80.264534,104.239571 82.204109,105.593307 84.481796,106.984024 
	C85.220573,109.888237 85.865067,112.771202 85.886482,115.658783 
	C85.896973,117.074409 84.874268,119.606026 84.102509,119.692192 
	C82.410011,119.881180 80.070221,119.353088 78.893883,118.200294 
	C73.959213,113.364304 69.204254,108.321129 64.688225,103.090698 
	C61.973957,99.947060 59.001514,98.250565 54.417011,98.908661 
	C51.130444,95.353004 48.264874,91.872513 45.281563,87.854614 
	C48.762814,84.838943 52.361805,82.360672 55.960800,79.882401 
	C57.213543,81.432854 58.466282,82.983299 59.728485,85.135506 
	C57.216522,87.537056 54.695095,89.336845 52.173664,91.136635 
	C56.061363,92.042854 59.807358,91.187019 62.843033,92.288612 
	C65.756248,93.345764 67.931480,96.434113 70.456749,98.599861 
	C70.480682,98.620392 70.856033,98.231171 71.067329,98.033249 
	C71.067329,98.033249 71.046204,97.958069 70.678459,98.140175 
	C70.698174,98.724129 71.085625,99.125984 71.473083,99.527832 
	C71.610283,99.032257 71.747490,98.536682 71.884705,98.041115 
z"/>
<path fill="currentColor" opacity="1.000000" stroke="none" 
	d="
M116.887222,73.954361 
	C118.589722,75.035271 120.292213,76.116180 122.195633,77.534752 
	C119.157692,83.183647 115.918846,88.494873 112.295090,93.620094 
	C110.569748,91.608009 109.229317,89.781921 108.030602,87.631516 
	C109.312874,85.284332 110.453438,83.261482 111.964066,80.582306 
	C107.995956,80.311462 104.496986,80.072639 100.980774,79.488487 
	C99.974899,77.151093 98.986267,75.159035 98.454834,73.093025 
	C104.903770,73.330841 110.895500,73.642593 116.887222,73.954361 
z"/>
<path fill="currentColor" opacity="1.000000" stroke="none" 
	d="
M107.888893,87.955841 
	C109.229317,89.781921 110.569748,91.608009 111.975510,93.777069 
	C108.308342,94.391655 104.557281,95.026222 100.848366,94.836548 
	C96.843399,94.631729 92.877831,93.656334 88.469170,93.065033 
	C86.554680,91.439522 85.066109,89.766037 83.412567,87.661743 
	C84.900703,86.820061 86.585358,85.962418 88.201363,86.076576 
	C94.775322,86.540993 101.328224,87.303329 107.888893,87.955841 
z"/>
<path fill="currentColor" opacity="1.000000" stroke="none" 
	d="
M50.955406,10.888123 
	C55.662525,10.600463 60.369648,10.312802 65.556015,10.447279 
	C69.474823,16.582407 73.310020,21.869837 80.467392,24.185154 
	C80.870918,24.730768 80.961586,25.051105 80.971260,25.373869 
	C81.265205,35.182652 81.263969,35.182690 90.072998,38.498207 
	C91.086006,40.928890 92.024498,43.026611 92.538467,45.070007 
	C87.779655,44.359711 83.445381,43.703743 78.797073,42.867592 
	C76.697815,41.324081 74.912598,39.960758 73.454536,38.325134 
	C73.781700,33.159065 73.781700,28.265299 73.781700,22.096212 
	C70.334389,25.222887 68.189934,27.167883 65.883774,28.821583 
	C64.466141,26.983173 63.210228,25.436064 62.082321,23.581440 
	C64.217865,21.533350 66.225395,19.792776 68.232925,18.052202 
	C67.915024,17.641272 67.597115,17.230341 67.279213,16.819410 
	C63.517704,16.819410 59.756203,16.819410 55.763924,16.599033 
	C54.007236,14.548477 52.481323,12.718300 50.955406,10.888123 
z"/>
<path fill="currentColor" opacity="1.000000" stroke="none" 
	d="
M123.065773,55.543297 
	C120.945366,54.690815 118.776375,53.424343 116.285614,52.104515 
	C115.963844,52.051155 115.943382,52.098682 115.897789,51.753147 
	C113.221062,47.900616 110.589935,44.393616 107.854080,40.567024 
	C102.526115,32.951538 96.449158,26.641811 87.912201,22.769943 
	C85.907677,19.337822 83.952271,16.252728 81.996872,13.167631 
	C94.390549,17.401245 105.388397,23.632515 112.995026,34.750538 
	C113.818100,35.953556 114.630554,37.244293 115.723434,38.168594 
	C120.999367,42.630692 122.307983,48.737835 123.065773,55.543297 
z"/>
<path fill="currentColor" opacity="1.000000" stroke="none" 
	d="
M34.835487,42.000500 
	C32.496304,40.714474 30.157118,39.428444 27.409540,37.683281 
	C26.172476,34.288074 25.343803,31.352003 24.465803,28.241158 
	C21.839338,30.676369 19.446308,32.895145 17.053276,35.113926 
	C15.737319,33.386028 14.421361,31.658129 12.848326,29.637506 
	C12.591249,29.344784 12.785159,29.329098 12.985662,29.127872 
	C13.434053,28.590000 13.681941,28.253355 13.929830,27.916710 
	C17.396736,24.344231 20.863644,20.771753 24.736519,17.508980 
	C27.135168,19.559063 29.127850,21.299442 31.068369,23.449089 
	C32.289299,29.905737 33.562393,35.953117 34.835487,42.000500 
z"/>
<path fill="currentColor" opacity="1.000000" stroke="none" 
	d="
M81.657822,13.001995 
	C83.952271,16.252728 85.907677,19.337822 87.542969,22.711933 
	C84.995132,21.981178 82.767418,20.961409 80.116783,19.748043 
	C80.116783,21.464090 80.116783,22.712551 80.116783,23.961010 
	C73.310020,21.869837 69.474823,16.582407 66.015976,10.518517 
	C71.304840,9.904387 76.703049,9.124130 81.657822,13.001995 
z"/>
<path fill="currentColor" opacity="1.000000" stroke="none" 
	d="
M31.120531,23.039818 
	C29.127850,21.299442 27.135168,19.559063 25.070717,17.491653 
	C29.376785,16.106192 33.754623,15.047759 38.706528,14.232349 
	C40.890823,15.997519 42.501053,17.519667 43.913326,19.386189 
	C39.517090,20.833647 35.318810,21.936733 31.120531,23.039818 
z"/>
<path fill="currentColor" opacity="1.000000" stroke="none" 
	d="
M44.111282,19.041813 
	C42.501053,17.519667 40.890823,15.997519 39.117538,14.183088 
	C42.681889,12.923138 46.409294,11.955471 50.546055,10.937963 
	C52.481323,12.718300 54.007236,14.548477 55.355190,16.674992 
	C51.488583,17.661491 47.799931,18.351652 44.111282,19.041813 
z"/>
<path fill="currentColor" opacity="1.000000" stroke="none" 
	d="
M13.616352,28.066395 
	C13.681941,28.253355 13.434053,28.590000 13.042829,29.206573 
	C13.033953,29.063026 13.168413,28.639553 13.616352,28.066395 
z"/>

<path fill="currentColor" opacity="1.000000" stroke="none" 
	d="
M63.479221,49.835773 
	C58.927887,51.562813 54.376549,53.289852 49.434563,55.065201 
	C46.458111,51.903004 43.872307,48.692505 41.120480,45.185432 
	C44.415321,41.312725 47.876183,37.736591 51.790207,34.332130 
	C53.535172,36.015659 54.826965,37.527515 55.977261,39.353275 
	C53.994026,41.988361 52.152298,44.309536 49.806210,47.266365 
	C54.057896,45.975056 57.510708,44.926376 60.993828,44.283920 
	C61.842495,46.405354 62.660858,48.120564 63.479221,49.835773 
z"/>
<path fill="currentColor" opacity="1.000000" stroke="none" 
	d="
M64.090332,69.243187 
	C65.120422,66.680534 66.196419,64.474182 67.825211,62.331329 
	C70.196976,63.597088 72.015938,64.799339 73.934860,66.251480 
	C74.341095,66.629990 74.647369,66.758606 75.119598,67.183296 
	C77.225693,68.973991 79.165810,70.468620 81.105934,71.963242 
	C81.105934,71.963242 81.562691,72.017471 81.798599,72.437080 
	C83.022484,74.849403 84.010452,76.842117 84.998428,78.834824 
	C80.983887,78.560211 76.969353,78.285591 72.535484,78.026344 
	C69.456177,75.227638 66.796204,72.413559 64.090332,69.243187 
z"/>

<path fill="currentColor" opacity="1.000000" stroke="none" 
	d="
M85.442932,78.908234 
	C84.010452,76.842117 83.022484,74.849403 82.016258,72.511353 
	C87.037468,72.452133 92.076927,72.738251 97.557007,73.095673 
	C98.986267,75.159035 99.974899,77.151093 100.980774,79.488487 
	C95.961151,79.549759 90.924301,79.265694 85.442932,78.908234 
z"/>

<path fill="currentColor" opacity="1.000000" stroke="none" 
	d="
M90.072998,38.498207 
	C95.709450,39.105175 101.420418,40.045097 107.545097,40.935818 
	C110.589935,44.393616 113.221062,47.900616 115.897789,51.753147 
	C113.857468,53.008446 111.771561,53.918213 109.300812,54.638725 
	C107.615433,52.688915 106.314888,50.928356 105.014351,49.167793 
	C102.466255,48.115387 99.961258,46.932865 97.350983,46.068169 
	C96.135841,45.665642 94.716446,45.879723 93.176315,45.469315 
	C92.024498,43.026611 91.086006,40.928890 90.072998,38.498207 
z"/>
<path fill="currentColor" opacity="1.000000" stroke="none" 
	d="
M60.993828,44.283920 
	C64.817459,42.231697 68.671402,40.585697 72.826355,38.768566 
	C74.912598,39.960758 76.697815,41.324081 78.797073,42.867592 
	C78.137939,47.129860 77.164780,51.211941 75.685509,55.574409 
	C73.413406,54.888275 71.647415,53.921753 69.881416,52.955231 
	C70.136429,51.132023 70.391441,49.308815 70.665192,47.351627 
	C68.496330,48.223789 66.376839,49.076096 63.868286,49.882088 
	C62.660858,48.120564 61.842495,46.405354 60.993828,44.283920 
z"/>
<path fill="currentColor" opacity="1.000000" stroke="none" 
	d="
M65.883774,28.821579 
	C62.941040,32.338306 59.836605,35.563740 56.425468,38.914268 
	C54.826965,37.527515 53.535172,36.015659 52.099083,34.196014 
	C55.081985,30.645454 58.209187,27.402683 61.645348,24.024433 
	C63.210228,25.436064 64.466141,26.983173 65.883774,28.821579 
z"/>
<path fill="currentColor" opacity="1.000000" stroke="none" 
	d="
M86.002617,60.153229 
	C89.745407,58.102249 93.488205,56.051270 97.659424,54.283691 
	C99.434692,56.059910 100.781525,57.552727 102.128357,59.045547 
	C98.519600,61.091164 94.910835,63.136776 90.704086,65.158310 
	C88.738281,63.473888 87.370453,61.813557 86.002617,60.153229 
z"/>
<path fill="currentColor" opacity="1.000000" stroke="none" 
	d="
M85.653877,60.177216 
	C87.370453,61.813557 88.738281,63.473888 90.428795,65.366043 
	C87.577538,67.491043 84.403595,69.384224 81.167793,71.620316 
	C79.165810,70.468620 77.225693,68.973991 75.119598,67.183296 
	C78.404137,64.658546 81.854637,62.429878 85.653877,60.177216 
z"/>
<path fill="currentColor" opacity="1.000000" stroke="none" 
	d="
M102.441956,58.905319 
	C100.781525,57.552727 99.434692,56.059910 98.024353,54.227520 
	C100.084404,52.328880 102.207962,50.769810 104.672928,49.189266 
	C106.314888,50.928356 107.615433,52.688915 108.977585,54.783066 
	C106.944649,56.332798 104.850098,57.548943 102.441956,58.905319 
z"/>
<path fill="currentColor" opacity="1.000000" stroke="none" 
	d="
M69.543762,53.154373 
	C71.647415,53.921753 73.413406,54.888275 75.507843,55.927055 
	C75.218590,59.067688 74.600906,62.136066 73.909058,65.603020 
	C72.015938,64.799339 70.196976,63.597088 68.163940,62.142467 
	C68.368607,59.044579 68.787354,56.199051 69.543762,53.154373 
z"/>
</svg>