<svg id="visual" viewBox="0 0 900 100" width="900" height="100" xmlns="http://www.w3.org/2000/svg" xmlns:xlink="http://www.w3.org/1999/xlink" version="1.1">
<rect xmlns="http://www.w3.org/2000/svg" x="0" y="0" width="900" height="300" fill="#683bd8"/>
<path d="M0 77L13.7 74.2C27.3 71.3 54.7 65.7 82 63.2C109.3 60.7 136.7 61.3 163.8 60.2C191 59 218 56 245.2 57.7C272.3 59.3 299.7 65.7 327 66.5C354.3 67.3 381.7 62.7 409 63C436.3 63.3 463.7 68.7 491 70C518.3 71.3 545.7 68.7 573 65.8C600.3 63 627.7 60 654.8 59.8C682 59.7 709 62.3 736.2 62.2C763.3 62 790.7 59 818 59.5C845.3 60 872.7 64 886.3 66L900 68L900 0L886.3 0C872.7 0 845.3 0 818 0C790.7 0 763.3 0 736.2 0C709 0 682 0 654.8 0C627.7 0 600.3 0 573 0C545.7 0 518.3 0 491 0C463.7 0 436.3 0 409 0C381.7 0 354.3 0 327 0C299.7 0 272.3 0 245.2 0C218 0 191 0 163.8 0C136.7 0 109.3 0 82 0C54.7 0 27.3 0 13.7 0L0 0Z" fill="#683bd8"></path><path d="M0 47L13.7 48.2C27.3 49.3 54.7 51.7 82 53.7C109.3 55.7 136.7 57.3 163.8 58.5C191 59.7 218 60.3 245.2 59.2C272.3 58 299.7 55 327 52C354.3 49 381.7 46 409 44.5C436.3 43 463.7 43 491 45.2C518.3 47.3 545.7 51.7 573 52.5C600.3 53.3 627.7 50.7 654.8 51.3C682 52 709 56 736.2 55.8C763.3 55.7 790.7 51.3 818 50.3C845.3 49.3 872.7 51.7 886.3 52.8L900 54L900 0L886.3 0C872.7 0 845.3 0 818 0C790.7 0 763.3 0 736.2 0C709 0 682 0 654.8 0C627.7 0 600.3 0 573 0C545.7 0 518.3 0 491 0C463.7 0 436.3 0 409 0C381.7 0 354.3 0 327 0C299.7 0 272.3 0 245.2 0C218 0 191 0 163.8 0C136.7 0 109.3 0 82 0C54.7 0 27.3 0 13.7 0L0 0Z" fill="#8d68e3"></path><path d="M0 42L13.7 42.8C27.3 43.7 54.7 45.3 82 45.2C109.3 45 136.7 43 163.8 43.5C191 44 218 47 245.2 47.8C272.3 48.7 299.7 47.3 327 44.2C354.3 41 381.7 36 409 35.2C436.3 34.3 463.7 37.7 491 38.5C518.3 39.3 545.7 37.7 573 38.2C600.3 38.7 627.7 41.3 654.8 43.5C682 45.7 709 47.3 736.2 46.7C763.3 46 790.7 43 818 42.7C845.3 42.3 872.7 44.7 886.3 45.8L900 47L900 0L886.3 0C872.7 0 845.3 0 818 0C790.7 0 763.3 0 736.2 0C709 0 682 0 654.8 0C627.7 0 600.3 0 573 0C545.7 0 518.3 0 491 0C463.7 0 436.3 0 409 0C381.7 0 354.3 0 327 0C299.7 0 272.3 0 245.2 0C218 0 191 0 163.8 0C136.7 0 109.3 0 82 0C54.7 0 27.3 0 13.7 0L0 0Z" fill="#ae93ed"></path><path d="M0 28L13.7 29.2C27.3 30.3 54.7 32.7 82 32.5C109.3 32.3 136.7 29.7 163.8 28.7C191 27.7 218 28.3 245.2 27.5C272.3 26.7 299.7 24.3 327 24C354.3 23.7 381.7 25.3 409 27C436.3 28.7 463.7 30.3 491 29.5C518.3 28.7 545.7 25.3 573 24.7C600.3 24 627.7 26 654.8 25.8C682 25.7 709 23.3 736.2 24.2C763.3 25 790.7 29 818 30.8C845.3 32.7 872.7 32.3 886.3 32.2L900 32L900 0L886.3 0C872.7 0 845.3 0 818 0C790.7 0 763.3 0 736.2 0C709 0 682 0 654.8 0C627.7 0 600.3 0 573 0C545.7 0 518.3 0 491 0C463.7 0 436.3 0 409 0C381.7 0 354.3 0 327 0C299.7 0 272.3 0 245.2 0C218 0 191 0 163.8 0C136.7 0 109.3 0 82 0C54.7 0 27.3 0 13.7 0L0 0Z" fill="#cfbef5"></path><path d="M0 13L13.7 14C27.3 15 54.7 17 82 17.5C109.3 18 136.7 17 163.8 16C191 15 218 14 245.2 14.8C272.3 15.7 299.7 18.3 327 18.5C354.3 18.7 381.7 16.3 409 16.2C436.3 16 463.7 18 491 19C518.3 20 545.7 20 573 18.8C600.3 17.7 627.7 15.3 654.8 14.5C682 13.7 709 14.3 736.2 14.7C763.3 15 790.7 15 818 15.3C845.3 15.7 872.7 16.3 886.3 16.7L900 17L900 0L886.3 0C872.7 0 845.3 0 818 0C790.7 0 763.3 0 736.2 0C709 0 682 0 654.8 0C627.7 0 600.3 0 573 0C545.7 0 518.3 0 491 0C463.7 0 436.3 0 409 0C381.7 0 354.3 0 327 0C299.7 0 272.3 0 245.2 0C218 0 191 0 163.8 0C136.7 0 109.3 0 82 0C54.7 0 27.3 0 13.7 0L0 0Z" fill="#efeafb"></path></svg>