<svg id="visual" viewBox="0 0 900 100" width="900" height="100" xmlns="http://www.w3.org/2000/svg" xmlns:xlink="http://www.w3.org/1999/xlink" version="1.1"><path d="M0 21L13.7 23.8C27.3 26.7 54.7 32.3 82 34.8C109.3 37.3 136.7 36.7 163.8 37.8C191 39 218 42 245.2 40.3C272.3 38.7 299.7 32.3 327 31.5C354.3 30.7 381.7 35.3 409 35C436.3 34.7 463.7 29.3 491 28C518.3 26.7 545.7 29.3 573 32.2C600.3 35 627.7 38 654.8 38.2C682 38.3 709 35.7 736.2 35.8C763.3 36 790.7 39 818 38.5C845.3 38 872.7 34 886.3 32L900 30L900 101L886.3 101C872.7 101 845.3 101 818 101C790.7 101 763.3 101 736.2 101C709 101 682 101 654.8 101C627.7 101 600.3 101 573 101C545.7 101 518.3 101 491 101C463.7 101 436.3 101 409 101C381.7 101 354.3 101 327 101C299.7 101 272.3 101 245.2 101C218 101 191 101 163.8 101C136.7 101 109.3 101 82 101C54.7 101 27.3 101 13.7 101L0 101Z" fill="#efeafb"></path><path d="M0 51L13.7 49.8C27.3 48.7 54.7 46.3 82 44.3C109.3 42.3 136.7 40.7 163.8 39.5C191 38.3 218 37.7 245.2 38.8C272.3 40 299.7 43 327 46C354.3 49 381.7 52 409 53.5C436.3 55 463.7 55 491 52.8C518.3 50.7 545.7 46.3 573 45.5C600.3 44.7 627.7 47.3 654.8 46.7C682 46 709 42 736.2 42.2C763.3 42.3 790.7 46.7 818 47.7C845.3 48.7 872.7 46.3 886.3 45.2L900 44L900 101L886.3 101C872.7 101 845.3 101 818 101C790.7 101 763.3 101 736.2 101C709 101 682 101 654.8 101C627.7 101 600.3 101 573 101C545.7 101 518.3 101 491 101C463.7 101 436.3 101 409 101C381.7 101 354.3 101 327 101C299.7 101 272.3 101 245.2 101C218 101 191 101 163.8 101C136.7 101 109.3 101 82 101C54.7 101 27.3 101 13.7 101L0 101Z" fill="#cfbef5"></path><path d="M0 56L13.7 55.2C27.3 54.3 54.7 52.7 82 52.8C109.3 53 136.7 55 163.8 54.5C191 54 218 51 245.2 50.2C272.3 49.3 299.7 50.7 327 53.8C354.3 57 381.7 62 409 62.8C436.3 63.7 463.7 60.3 491 59.5C518.3 58.7 545.7 60.3 573 59.8C600.3 59.3 627.7 56.7 654.8 54.5C682 52.3 709 50.7 736.2 51.3C763.3 52 790.7 55 818 55.3C845.3 55.7 872.7 53.3 886.3 52.2L900 51L900 101L886.3 101C872.7 101 845.3 101 818 101C790.7 101 763.3 101 736.2 101C709 101 682 101 654.8 101C627.7 101 600.3 101 573 101C545.7 101 518.3 101 491 101C463.7 101 436.3 101 409 101C381.7 101 354.3 101 327 101C299.7 101 272.3 101 245.2 101C218 101 191 101 163.8 101C136.7 101 109.3 101 82 101C54.7 101 27.3 101 13.7 101L0 101Z" fill="#ae93ed"></path><path d="M0 70L13.7 68.8C27.3 67.7 54.7 65.3 82 65.5C109.3 65.7 136.7 68.3 163.8 69.3C191 70.3 218 69.7 245.2 70.5C272.3 71.3 299.7 73.7 327 74C354.3 74.3 381.7 72.7 409 71C436.3 69.3 463.7 67.7 491 68.5C518.3 69.3 545.7 72.7 573 73.3C600.3 74 627.7 72 654.8 72.2C682 72.3 709 74.7 736.2 73.8C763.3 73 790.7 69 818 67.2C845.3 65.3 872.7 65.7 886.3 65.8L900 66L900 101L886.3 101C872.7 101 845.3 101 818 101C790.7 101 763.3 101 736.2 101C709 101 682 101 654.8 101C627.7 101 600.3 101 573 101C545.7 101 518.3 101 491 101C463.7 101 436.3 101 409 101C381.7 101 354.3 101 327 101C299.7 101 272.3 101 245.2 101C218 101 191 101 163.8 101C136.7 101 109.3 101 82 101C54.7 101 27.3 101 13.7 101L0 101Z" fill="#8d68e3"></path><path d="M0 85L13.7 84C27.3 83 54.7 81 82 80.5C109.3 80 136.7 81 163.8 82C191 83 218 84 245.2 83.2C272.3 82.3 299.7 79.7 327 79.5C354.3 79.3 381.7 81.7 409 81.8C436.3 82 463.7 80 491 79C518.3 78 545.7 78 573 79.2C600.3 80.3 627.7 82.7 654.8 83.5C682 84.3 709 83.7 736.2 83.3C763.3 83 790.7 83 818 82.7C845.3 82.3 872.7 81.7 886.3 81.3L900 81L900 101L886.3 101C872.7 101 845.3 101 818 101C790.7 101 763.3 101 736.2 101C709 101 682 101 654.8 101C627.7 101 600.3 101 573 101C545.7 101 518.3 101 491 101C463.7 101 436.3 101 409 101C381.7 101 354.3 101 327 101C299.7 101 272.3 101 245.2 101C218 101 191 101 163.8 101C136.7 101 109.3 101 82 101C54.7 101 27.3 101 13.7 101L0 101Z" fill="#683bd8"></path></svg>