<svg id="visual" viewBox="0 0 3920 300" width="3920" height="300" xmlns="http://www.w3.org/2000/svg" xmlns:xlink="http://www.w3.org/1999/xlink" version="1.1"><path d="M0 76L59.3 79.5C118.7 83 237.3 90 356.2 95C475 100 594 103 712.8 97C831.7 91 950.3 76 1069 77.5C1187.7 79 1306.3 97 1425.2 99C1544 101 1663 87 1781.8 82C1900.7 77 2019.3 81 2138.2 87C2257 93 2376 101 2494.8 98.5C2613.7 96 2732.3 83 2851 76.5C2969.7 70 3088.3 70 3207.2 73C3326 76 3445 82 3563.8 78.5C3682.7 75 3801.3 62 3860.7 55.5L3920 49L3920 0L3860.7 0C3801.3 0 3682.7 0 3563.8 0C3445 0 3326 0 3207.2 0C3088.3 0 2969.7 0 2851 0C2732.3 0 2613.7 0 2494.8 0C2376 0 2257 0 2138.2 0C2019.3 0 1900.7 0 1781.8 0C1663 0 1544 0 1425.2 0C1306.3 0 1187.7 0 1069 0C950.3 0 831.7 0 712.8 0C594 0 475 0 356.2 0C237.3 0 118.7 0 59.3 0L0 0Z" fill="#0f2775"></path><path d="M0 130L59.3 137.5C118.7 145 237.3 160 356.2 160C475 160 594 145 712.8 138C831.7 131 950.3 132 1069 134.5C1187.7 137 1306.3 141 1425.2 137.5C1544 134 1663 123 1781.8 121.5C1900.7 120 2019.3 128 2138.2 137C2257 146 2376 156 2494.8 150C2613.7 144 2732.3 122 2851 119.5C2969.7 117 3088.3 134 3207.2 140C3326 146 3445 141 3563.8 133.5C3682.7 126 3801.3 116 3860.7 111L3920 106L3920 47L3860.7 53.5C3801.3 60 3682.7 73 3563.8 76.5C3445 80 3326 74 3207.2 71C3088.3 68 2969.7 68 2851 74.5C2732.3 81 2613.7 94 2494.8 96.5C2376 99 2257 91 2138.2 85C2019.3 79 1900.7 75 1781.8 80C1663 85 1544 99 1425.2 97C1306.3 95 1187.7 77 1069 75.5C950.3 74 831.7 89 712.8 95C594 101 475 98 356.2 93C237.3 88 118.7 81 59.3 77.5L0 74Z" fill="#00225e"></path><path d="M0 238L59.3 238C118.7 238 237.3 238 356.2 231.5C475 225 594 212 712.8 211.5C831.7 211 950.3 223 1069 228C1187.7 233 1306.3 231 1425.2 227.5C1544 224 1663 219 1781.8 219C1900.7 219 2019.3 224 2138.2 230C2257 236 2376 243 2494.8 243C2613.7 243 2732.3 236 2851 232C2969.7 228 3088.3 227 3207.2 230.5C3326 234 3445 242 3563.8 238C3682.7 234 3801.3 218 3860.7 210L3920 202L3920 104L3860.7 109C3801.3 114 3682.7 124 3563.8 131.5C3445 139 3326 144 3207.2 138C3088.3 132 2969.7 115 2851 117.5C2732.3 120 2613.7 142 2494.8 148C2376 154 2257 144 2138.2 135C2019.3 126 1900.7 118 1781.8 119.5C1663 121 1544 132 1425.2 135.5C1306.3 139 1187.7 135 1069 132.5C950.3 130 831.7 129 712.8 136C594 143 475 158 356.2 158C237.3 158 118.7 143 59.3 135.5L0 128Z" fill="#001c47"></path><path d="M0 271L59.3 270.5C118.7 270 237.3 269 356.2 266C475 263 594 258 712.8 260.5C831.7 263 950.3 273 1069 272.5C1187.7 272 1306.3 261 1425.2 256C1544 251 1663 252 1781.8 253.5C1900.7 255 2019.3 257 2138.2 261.5C2257 266 2376 273 2494.8 276C2613.7 279 2732.3 278 2851 277.5C2969.7 277 3088.3 277 3207.2 276C3326 275 3445 273 3563.8 268.5C3682.7 264 3801.3 257 3860.7 253.5L3920 250L3920 200L3860.7 208C3801.3 216 3682.7 232 3563.8 236C3445 240 3326 232 3207.2 228.5C3088.3 225 2969.7 226 2851 230C2732.3 234 2613.7 241 2494.8 241C2376 241 2257 234 2138.2 228C2019.3 222 1900.7 217 1781.8 217C1663 217 1544 222 1425.2 225.5C1306.3 229 1187.7 231 1069 226C950.3 221 831.7 209 712.8 209.5C594 210 475 223 356.2 229.5C237.3 236 118.7 236 59.3 236L0 236Z" fill="#021530"></path><path d="M0 301L59.3 301C118.7 301 237.3 301 356.2 301C475 301 594 301 712.8 301C831.7 301 950.3 301 1069 301C1187.7 301 1306.3 301 1425.2 301C1544 301 1663 301 1781.8 301C1900.7 301 2019.3 301 2138.2 301C2257 301 2376 301 2494.8 301C2613.7 301 2732.3 301 2851 301C2969.7 301 3088.3 301 3207.2 301C3326 301 3445 301 3563.8 301C3682.7 301 3801.3 301 3860.7 301L3920 301L3920 248L3860.7 251.5C3801.3 255 3682.7 262 3563.8 266.5C3445 271 3326 273 3207.2 274C3088.3 275 2969.7 275 2851 275.5C2732.3 276 2613.7 277 2494.8 274C2376 271 2257 264 2138.2 259.5C2019.3 255 1900.7 253 1781.8 251.5C1663 250 1544 249 1425.2 254C1306.3 259 1187.7 270 1069 270.5C950.3 271 831.7 261 712.8 258.5C594 256 475 261 356.2 264C237.3 267 118.7 268 59.3 268.5L0 269Z" fill="#00091a"></path></svg>